# xmcd
#
# Track frame offsets:
#	150
#	18155
#	33365
#	53130
#	65742
#	77760
#	93217
#	115985
#	126617
#	139870
#	154775
#	166562
#	178745
#	192955
#	206755
#	220782
#
# Disc length: 3290
#
# Revision: 3
# Processed by: cddbd v1.5.1PL0 Copyright (c) Steve Scherf et al.
# Submitted via: audiograbber 1.82.02
# Normalized: r2:DSETVAR1
#
DISCID=de0cd810
DTITLE=Various Artist - Soul Collection Vol. 3
DYEAR=1900
DGENRE=Soul
TTITLE0=The Manhattans - Lady I've Been Waiting For
TTITLE1=Ben E. King - Supernatural Thing (Part 1)
TTITLE2=De Barge - All Over
TTITLE3=The Original Lead Singers Of The Temptations - Beauty Is Only Skin Deep
TTITLE4=Sam and Dave - Hold On I'm Comin'
TTITLE5=The Platters - My Prayer
TTITLE6=Chuck Brown and The Soul Searchers - I Gotcha Now
TTITLE7=Eddie Floyd - Bring It On Home To Me
TTITLE8=Percy Sledge - When A Man Loves A Woman
TTITLE9=Harold Melvin and The Blue Notes - Satisfaction Guaranteed (Or Take Your Love Back)
TTITLE10=Martha Reeves - Dancing In The Streets
TTITLE11=The Drifters - Under The Boardwalk
TTITLE12=Clarence Carter - Patches
TTITLE13=Ike and Tina Turner - Too Much For One Woman
TTITLE14=Friends Of Distinction - Love Or Let Me Be Lonely
TTITLE15=The Dells - Stay In My Corner
EXTD=
EXTT0=The Manhattans\n
EXTT1=Ben E. King\n
EXTT2=De Barge\n
EXTT3=The Temptations\n
EXTT4=Sam and Dave\n
EXTT5=The Platters\n
EXTT6=Chuck Brown And The Soul Searchers\n
EXTT7=Eddie Floyd\n
EXTT8=Percy Sledge\n
EXTT9=Harold Melvin and The Blue Notes\n
EXTT10=Matha Reeves\n
EXTT11=The Drifters\n
EXTT12=Clarence Carter\n
EXTT13=Ike and Tina Turner\n
EXTT14=Friends Of Distinction\n
EXTT15=The Dells\n
PLAYORDER=
